<?xml version="1.0" encoding="utf-8"?>
<!DOCTYPE svg PUBLIC "-//W3C//DTD SVG 1.1//EN" "http://www.w3.org/Graphics/SVG/1.1/DTD/svg11.dtd">
<svg version="1.1" id="Layer_1" xmlns="http://www.w3.org/2000/svg" xmlns:xlink="http://www.w3.org/1999/xlink" x="0px" y="0px"
	 viewBox="606 -47.3846 1348 1694.7692" enable-background="new 606 -47.3846 1348 1694.7692" xml:space="preserve">
<g fill="hsl(45, 100%, 72%)">
	<path d="M747.571,519.3027c0-1.4628-0.4875-2.438-0.4875-3.9006c-28.2792,15.6023-50.7075-25.3538-44.8566-60.9465
		c21.4531-134.0825,285.2299-129.6943,354.9529-33.6425c64.8469,89.2257-96.5394,111.6539-24.3787,47.7821
		c1.4628,0.4875,2.9255,0.9751,3.9005,1.4626c1.4626,6.3384,2.4377,12.1892,3.9005,18.04
		c17.5526-12.1892,3.4131-23.8909-3.413-26.8163c-48.2697-21.4532-82.8873,120.4303-1.9503,111.6539
		c-25.8413-18.04,52.1703-89.7131,43.8816-32.1797c77.5239-58.0211,32.1797-18.0403,45.3441-93.6139
		c22.9159-133.5948,102.8778-79.9618,138.9581-120.918c-21.9408,3.413-23.891,2.4379-28.2792-9.2638
		c22.4283-13.6521,98.4896-31.6921,132.1321-29.2544c-48.7571-66.3098-152.61,49.2449-182.8396-22.916
		c-10.7267-25.3535,19.5028-17.5525,41.4436-21.4531c-9.7513-6.8259-17.0649-12.1895-24.8662-18.04
		c0.4877-0.9751,0.4877-2.438,0.4877-3.9006c63.3844-31.6921,137.0078-36.0803,204.2927-57.5334
		c107.2657-34.6177,274.9907-15.115,274.9907-142.3711c-8.7764,13.1643-5.3634,41.4436-38.0308,51.6826
		c-87.2754,27.304-171.6254,38.5181-259.8761,4.8755c3.4132-4.8755,5.8508-8.2886,7.8013-11.2141
		c-53.1454,0-50.22-3.4128-102.8778-8.2886c-274.9907-23.4036-494.3983,94.5889-627.0179,338.3751c0,18.0402,0,36.568,0,54.6082
		C676.3854,491.0234,694.9132,542.706,747.571,519.3027z M1043.0399,236.0231c-9.2639-73.136-139.9332-10.239-173.5758,5.8508
		c69.2352-104.8279,176.9886-69.2351,260.3636-77.5239c81.4246-7.8013,40.4685-91.6636,3.9006-39.0056
		c-13.6522-24.3787,37.5431-49.7324,66.7974-37.0557c71.6731,31.6921-11.2142,34.6177,175.526,46.8071
		c-23.8911,22.4282-137.0078,30.2295-168.2125,30.2295c-65.8221,0-64.3595,43.8813-117.0173,58.9961
		c16.5775,19.5029,41.9313,13.6521,62.4092,22.4285c-0.9751,7.801-6.8259,14.6272-16.0898,16.5774
		c-79.9617,15.1147-28.7667-9.2639-101.4149,31.6923c58.021,50.2198,68.7477-16.09,125.306,38.0306
		c-12.1893,10.7266-23.8911,21.4532-36.568,31.6921c-33.1549,27.7916-29.2543,53.1454-37.5431,57.5337
		c-9.2638-68.7478-16.0898-80.4495-119.9427-102.3903c0.4875-34.1301-112.1415-11.2142-129.2067-7.8013
		C871.902,248.2124,1052.7913,311.5969,1043.0399,236.0231z M725.1428,358.8913c14.1395-38.5183,56.0707-85.3252,97.0267-108.7285
		c0.9752,0.9751,1.9504,1.4626,2.438,2.4377c-12.6768,19.5029-25.3538,31.2047-12.1895,39.9809
		c-10.7266,34.1301-43.3939,36.5679-86.3003,71.6731C725.6302,360.8415,724.6552,359.8664,725.1428,358.8913z"/>
	<path d="M1896.2914,438.3657c-1.4626,4.8756-3.413,9.2637-4.8757,14.1395c-3.413,12.6769-6.3385,24.8662-9.2639,37.0554
		c-5.8508,26.329-12.1892,52.1703-16.0898,78.4994c-6.3384,39.0056-17.0651,76.5486-31.2047,112.629
		c-15.6022,40.4684-38.0305,77.5239-63.8718,112.1415c-25.3538,34.1302-57.046,61.9219-96.0518,79.9619
		c-4.8759,1.9504-10.239,2.9255-15.6023,5.3634c-10.7267,5.3633-20.9657,12.6769-32.1798,15.6022
		c-17.5527,4.8759-35.5928,7.3137-53.1453,9.2639c-14.6273,1.9504-28.7668-1.4626-41.4437-8.7762
		c-2.3502-1.41-3.3491-4.629-5.1647-7.4801c-7.243-4.3066-15.3956-7.6979-21.6519-12.5104
		c-19.0154-14.6271-19.5028-25.3538-3.413-43.3939c4.8757-5.3633,9.7515-11.7017,13.1644-18.0402
		c7.8011-14.6271,1.4626-31.2046-14.6272-38.5182c0,11.2141-4.3882,20.478-14.6271,25.3538
		c-2.9255,1.4626-7.8013,1.9503-9.7516,0.9751c-2.4377-1.4626-3.9005-6.8259-3.4128-9.7515
		c2.4377-14.6272,10.2389-27.304,22.9159-34.6176c13.1644-7.3136,28.2791-12.1893,42.9061-17.0651
		c16.09-5.3633,29.7421-13.1644,38.5183-27.7915c2.9254-5.3635,4.3882-12.1895,6.826-18.0403
		c-5.3633,3.413-8.2887,8.2887-12.1893,10.7266c-19.9905,12.1892-41.4436,19.0154-64.847,19.5029
		c-41.4436,0.9751-82.3999-7.3137-122.8683-16.09c-20.478-4.8757-40.9561-11.7017-61.4341-16.0898
		c-17.0651-3.9005-30.717-12.1893-42.9064-22.9159c-10.7266-9.2639-14.6272-23.8911,3.413-34.6177
		c4.3882-2.4377,9.2639-4.3882,13.1644-7.8011c4.3882-3.413,8.7764-7.8011,11.7018-12.1892
		c3.9005-6.3385,2.9254-11.7018-0.9751-15.1147c-5.8508,3.413-10.239,7.3136-15.1147,8.7762
		c-5.8508,1.9502-12.6769,2.4379-19.0154,2.4379c-23.4034,1.4628-42.4187,9.7515-54.1205,32.1798
		c-15.1149,27.3041-11.2142,56.5583,11.2141,74.5985c15.6023,12.1893,31.6923,22.4283,50.7076,27.7916
		c17.5526,4.8757,33.6425,13.652,44.369,29.2544c5.3633,8.2888,11.2141,16.5774,15.6023,25.3538
		c19.5029,37.0554,27.7916,76.5488,32.6674,117.9924c5.3633,43.394,5.3633,87.2755,4.8756,131.157
		c0,6.3384,0,12.6769-1.4626,19.0154c-5.3633,31.6921-11.2141,63.3844-16.5774,95.0764
		c-3.9006,23.8912-12.6769,44.3691-35.1052,57.0461c-6.3385,3.4128-10.7266,10.7266-16.09,16.5774
		c0.4875,0.9751,0.9752,1.4626,1.9503,2.438c6.8259-5.3635,13.652-10.7268,23.4036-7.3137c-0.4877,1.4628,0,2.438-0.4877,2.9255
		c-4.3881,7.3135-7.8011,15.1145-12.6768,22.4282c-22.9159,34.1301-52.1703,57.046-96.0519,55.5833
		c-16.5774-0.4874-31.2046-4.8756-40.4685-19.9905c-0.4874-0.4875-1.4626-0.4875-2.4379-0.4875c0,0.9751,0,1.4628,0,1.9502
		c0.4877,1.4628,1.4628,2.9255,1.9504,4.3882c8.7762,22.4285,27.7915,34.1301,48.7571,41.4437
		c25.8414,9.2638,53.1455,12.1892,78.0116-3.4132c20.9656-13.1644,41.9313-26.3287,60.459-42.4187
		c19.0154-16.0898,35.5928-35.5928,52.1703-54.608c14.6272-16.09,27.304-33.6425,41.4435-50.2198
		c9.264-11.2144,17.5527-22.916,28.2793-32.1799c17.5526-14.6271,36.5679-28.2791,55.5833-41.4436
		c28.7667-19.9905,60.9467-34.1299,93.1263-47.2944c28.2792-11.7018,56.5583-24.3787,79.4742-43.8815
		c20.9657-18.0402,38.5183-39.0057,57.046-58.9963c7.8011-7.8011,14.6272-16.5775,20.478-25.8413
		c19.0154-29.2543,38.0306-59.4838,49.7323-92.6388c16.0898-44.8566,28.2793-91.176,31.2047-139.4456
		c2.9254-54.6082,5.851-109.2163,7.8011-163.8243c0.9752-31.2046,1.9503-62.4093,9.7515-92.6388
		c1.4626-3.9006,0.9751-7.801,1.4626-12.1892C1898.2416,438.3657,1897.2665,438.3657,1896.2914,438.3657z M1747.5819,885.957
		c-10.7267,25.3538-22.916,49.2449-41.9313,70.2104c-12.6769,13.6521-28.2793,23.4033-45.3442,31.6921
		c-18.0402,8.2888-35.1052,19.0154-42.4188,38.0307c-11.2142,29.7421-37.5431,36.568-62.4092,45.8319
		c-25.3539,9.2639-52.1702,16.5774-76.0614,27.7915c-20.4779,9.7515-37.543,26.329-52.1702,44.3691
		c-18.0402,21.9407-35.1051,44.369-41.9312,72.6483c-0.4877,2.4376-1.9504,4.3881-2.9255,6.8258
		c-0.4875,0.4878-0.9752,1.4628-1.4626,1.9504c-0.9752,0-1.4628,0-2.438-0.4877c0-9.7513-0.4874-19.9904,0.4877-29.7418
		c2.4377-26.3289,18.0402-46.3193,33.6426-66.3098c17.0651-21.4532,34.13-42.9065,50.7074-64.8472
		c14.6272-19.5029,13.6521-53.1454-1.9502-71.6732c-6.826-8.2888-15.1149-13.6521-26.329-11.2141
		c-10.7266,2.4379-17.5526,9.7515-20.9656,20.478c-4.8757,17.5525-5.3634,35.1052,2.4379,52.1702
		c-17.5526-8.2888-22.4283-24.3787-25.3538-41.4437c-5.8508-32.1798-0.9752-63.3844,5.8508-94.1016
		c2.438-10.7266,5.8508-21.4531,5.8508-32.1797c0-9.2639-2.9254-19.0154-6.3384-28.2793
		c-9.2639-22.4282-19.0154-45.3442-29.7419-67.2849c-6.3384-13.1644-15.1146-24.8661-23.4034-37.0554
		c-4.8757-7.8013-10.7266-15.6023-16.0898-23.4036c0.9751-0.4875,1.4628-1.4626,2.4379-1.9502
		c5.3632,4.3882,10.7266,8.7764,15.6022,13.6519c20.9657,19.0154,43.8817,22.4285,70.2106,12.1895
		c9.7515-3.9006,20.4779-4.3882,30.7169-6.826c0.9752,0,1.9503,0.4877,4.3882,1.4628c-1.9502,1.4626-2.4379,2.4377-3.413,2.9254
		c-17.5525,6.3385-22.9159,20.4779-25.3539,37.0554c-2.4377,16.09-1.9502,32.1798,6.8262,46.807
		c4.8757,8.2888,12.6769,10.7266,20.4779,4.8757c4.8757-4.3882,9.2639-9.7515,15.1149-15.6023
		c0.4875,0.4875,1.9502,2.4379,2.9254,3.9006c6.826,21.453,2.9255,41.9312-6.3385,61.9216
		c-5.851,11.7017-8.2887,24.3785-4.3882,37.0554c4.3882,14.6272,19.9905,19.0154,33.1549,8.7764
		c5.8508-4.8757,10.239-11.2142,15.6024-16.5775c0.9752,0.4877,1.9503,0.9751,2.9254,1.4628
		c-0.9751,3.4131-0.9751,6.826-2.4379,9.7515c-2.9255,6.8259-6.8259,13.1644-9.7513,19.9904
		c-3.4132,7.8011-2.438,15.6024,4.8756,23.4036c2.438-2.9254,4.8757-4.8757,5.8508-7.3136
		c4.3882-9.7515,11.7018-15.6023,21.9408-18.0402c15.1149-3.9006,30.717-6.3385,46.3193-10.2391
		c8.7764-2.4377,17.0651-6.8259,26.329-10.239c0.4875,8.7764-6.826,11.7018-11.7018,16.5775
		c-8.2887,7.3136-16.5774,15.1147-24.8662,22.4283c-1.4628,1.9503-2.9254,3.9006-3.9005,6.3384
		c-2.9254,6.8262-2.9254,14.1396,2.4377,19.5029c6.3386,5.8508,13.6522,2.9255,18.5278-0.9751
		c6.826-5.8508,12.1893-13.6521,18.5278-19.9905c8.2887-9.2639,17.0651-18.0402,26.3287-26.8164
		c16.5776-15.6024,38.0308-21.9409,59.4839-27.7917c20.478-6.3384,39.0059-16.0898,53.6329-33.1549
		c1.9503-2.4379,4.3882-4.3881,8.2887-7.8011C1748.0693,881.0812,1748.557,884.0068,1747.5819,885.957z M1826.0809,806.9702
		c-5.3633,11.2144-12.6769,21.9408-19.5028,32.6675c-8.7762,13.652-18.5277,27.304-29.2544,42.9064
		c0.9751-11.7018,0.9751-21.4532,2.9254-31.2047c3.4131-15.6023,10.7267-29.2544,20.4781-42.4187
		c7.801-10.239,14.6272-21.9409,21.9407-33.155c0.9751-1.4626,2.4379-2.4379,4.8756-5.3633
		C1829.4941,784.0544,1830.9568,795.756,1826.0809,806.9702z"/>
	<path d="M1527.1991,886.4445c0.0703,0.1052,0.1311,0.2146,0.1987,0.321c0.0953,0.0566,0.194,0.1096,0.2889,0.1665
		L1527.1991,886.4445z"/>
	<path d="M1629.5894,536.8552c-40.4685,26.8164-22.4282-66.3098,39.981-17.0651c10.239-58.0211-132.6198-30.7169-157.4858-15.1146
		c-32.6675,20.9656-65.8224-11.7018-30.2295-20.9657c1.4626,2.4379,3.413,4.8757,6.3384,9.2639
		c-5.3633,1.9503-9.2638,3.413-13.1644,4.8757c10.7266,22.4283,32.1798,9.2638,25.3539-15.1147
		c-34.6177-18.5277-63.3845-29.7418-98.0021-1.9503c-31.2047,24.8662-4.8759-22.4282-12.1895-33.6425
		c22.4285-1.4628,78.4993-8.2887,62.8969-43.8815c-2.4379,28.7667-49.7323,31.2046-69.7229,29.7418
		c-63.3843-4.8756-92.6387,69.7228-107.7534,58.0211c-15.6023-12.1892-19.0153,27.7916-36.0803,19.9905
		c-28.7668-13.1644,82.8873-51.6827,41.4437-78.0116c11.7017,33.1549-45.3444,24.8661-56.0709,48.2697
		c-19.0153,42.4189-50.22,23.8911,4.3882-30.717c21.4532-21.4532,13.652-72.1606-20.9657-63.3845
		c54.1206,35.593-64.847,122.3809-84.35,134.5701c-32.1798,19.9905-44.8566,44.8567-66.7972,73.6235
		c-9.7516-19.9905,27.304-39.981,7.801-55.5833c-5.8508,14.6271-13.1644,26.3289-23.4034,38.5182
		c-39.0059,46.8069-11.2142,43.3939-21.9408,73.6234c-6.3385-3.9006-11.2142-6.826-16.5775-10.239
		c-0.4875,0.9751-0.9751,1.4626-1.4626,2.4377c3.4128,6.3385,4.8756,23.8911-7.8013,19.5029
		c-23.891-8.7764,30.717-56.5583,10.2391-71.1855c-34.6177,49.7324-55.5833,78.9867-25.3538,143.8337
		c19.9904,42.4189-23.4034,81.4247-43.394,116.0424c-37.0554,64.3595,18.0402,102.3903,20.4781,51.6825
		c3.4128-76.5488,99.9524-116.5297,70.6979-164.3118c0.4875,8.2887,0,15.1147-8.7762,18.5277
		c-17.5526-19.5028,20.9656-54.1205,23.8911-76.5488c15.6024,6.826,14.6272-9.2638,22.4282-15.6022
		c6.3386-4.8759,59.9714-135.5452,84.3501-101.9027c-9.7515,6.3384-19.5029,10.239-15.1149,22.4283
		c5.3634,16.5774,42.9065-16.09,58.9963-15.1147c34.1301,1.9502,117.0173-67.7726,154.5604-85.3252
		c0.9752,0.9751,1.4626,1.4628,1.9503,2.4379c-5.3633,10.7267-26.3289,29.7418-17.0649,41.9313
		c4.8756-1.4628,9.7513-3.9006,14.1395-3.9006c32.1798,0.4875,76.0612-34.6177,103.8529-9.7515
		c39.0057,34.6177,74.5985-14.1396,113.1168,9.2639c-7.3136,6.8259-19.9905-0.9751-27.3041,8.2886
		c2.4379,2.9255,4.3881,4.876,6.3385,7.3137c-2.4379,2.4379-3.9006,4.8757-6.826,8.7764
		c17.5526,14.1395,91.176,42.4187,112.1415,44.8567c98.0021,11.7017,41.4437,66.3098,153.0979,128.719
		c-13.6521-31.2046-38.5182-30.2295-44.3691-74.5986c-11.7018-81.4243-74.1111-67.2849-130.1819-93.6138
		C1627.1515,548.5568,1628.1266,543.6813,1629.5894,536.8552z M1169.8087,549.0445c-35.1053,2.4379-19.9905-27.3041,7.801-33.6425
		c0.4877,0.9751,1.4628,1.4626,1.9503,1.9502c-1.4626,0.9751-4.3881,1.9504-4.8757,3.4131
		c-13.652,29.7419,28.7668,8.7764,40.4685,4.3882c0.4877,0.9751,0.9752,2.4377,1.4628,3.9005
		C1201.0132,535.8801,1187.8488,548.0694,1169.8087,549.0445z M1373.6139,462.7443c0-7.8013,5.8508-9.7515,11.7018-12.1895
		C1386.2909,461.769,1383.8529,464.6945,1373.6139,462.7443z"/>
	<path d="M1850.4596,1193.6152c0-15.1147-3.9005-29.7419-14.1395-41.4437c-5.851-6.3384-13.6521-9.7513-21.9408-7.8011
		c-11.2141,2.9255-20.9656,8.7764-23.4034,21.9407c-1.4628,8.2888,2.4379,14.1396,11.2142,18.5278
		c-0.9752-3.9006-1.9503-6.3384-1.9503-8.7764c0-8.7762,6.8259-13.6521,13.652-10.239c13.6519,7.3136,18.5278,22.916,9.7513,35.5928
		c-8.2886,12.1895-21.453,15.1149-35.1052,13.1644c-14.6271-1.4628-19.5028-6.3384-22.4282-21.4531
		c-6.3385-30.7172-1.9503-59.4838,19.0153-83.8624c12.677-15.6023,25.3538-31.2046,38.5182-46.3193
		c36.568-39.981,36.0804-104.3406,10.2391-144.8091c-1.4626-2.4377-3.4131-4.3881-5.8508-7.3135
		c-0.4878,1.9503-0.9752,2.4377-0.9752,2.9254c0.4874,1.9503,0.4874,3.413,0.9752,4.8757
		c5.3632,24.8661,3.9004,50.2198-5.3634,73.6234c-12.6769,29.7419-33.1549,54.6081-60.459,72.1607
		c-13.1644,8.7764-26.8164,16.5776-34.6177,30.717c-12.6769,22.4283-17.0651,45.8319-10.7264,71.6732
		c6.8258,27.304,3.413,54.608-4.3883,81.4247c-8.7762,31.2043-18.5276,62.4092-38.0306,89.2255
		c-12.1892,16.5776-24.3787,32.6675-37.5431,48.2698c-5.8508,6.826-14.1395,12.677-21.9407,17.5526
		c-2.9254,1.4626-8.2888-0.4875-12.1893-0.4875c0-4.3881-0.9751-9.7515,0.9751-12.6769c4.8759-5.3634,11.2142-9.2638,16.5776-13.652
		c-6.826-5.8511-13.6522-5.8511-20.4781,0.4875c-7.3136,7.801-10.239,16.5773-9.7513,26.8163
		c0.9751,17.5529,11.7017,28.7668,29.2543,28.7668c20.4779,0.4877,39.0057-6.3384,54.1205-19.9902
		c7.8011-7.3138,14.6273-15.6024,22.4283-24.3787c8.7762,21.9407,6.3385,43.3939-3.413,64.847
		c-14.1396,31.692-42.9064,37.0554-75.5737,38.5181c4.3882,4.8759,7.8011,8.7764,10.7267,12.677
		c2.9254,3.4128,7.3135,8.2888,6.3383,10.7264c-1.4626,4.3882-6.3383,7.8013-10.239,10.7268
		c-3.9005,2.4379-8.2886,3.9006-12.6769,5.3633c0.4877,0.975,0.4877,1.9502,0.9752,2.9254c11.2142,0,22.4283-0.9752,31.6923-7.8013
		c14.1396-9.7515,28.7667-19.0153,41.4437-30.2295c18.5276-16.5774,36.5677-34.1299,53.1453-52.6577
		c11.7017-12.6769,19.9904-27.7915,30.717-41.4437c9.2638-11.2142,19.9905-21.4532,30.2295-31.6921
		c17.0651-17.0651,25.3536-38.0306,29.2544-61.4341c0.4874-2.9254,0.4874-5.3633,0.4874-8.7765
		c-2.9254,0.9752-5.3633,1.463-9.7513,2.9257c2.9254-6.826,4.8757-12.1893,7.3136-17.0651
		C1838.2704,1256.0244,1850.9471,1226.2825,1850.4596,1193.6152z M1767.0847,1367.1909
		c-12.6768,8.2887-19.9905,5.8508-30.2295-8.7764c-9.2639,0-18.0402,0.9752-26.329-0.4874
		c-9.7513-0.9752-15.1146-7.8014-16.5773-17.0651c-1.9503-9.7516,1.4626-17.5526,9.7513-23.8912
		c-1.9503,12.677-0.9751,24.3787,10.239,31.2047c11.7018,7.3136,22.9159,3.413,32.1798-4.8756
		c17.5526,14.1394,19.0153,13.652,36.0803-10.2393C1788.0504,1342.3247,1780.7368,1357.9271,1767.0847,1367.1909z
		 M1793.4137,1294.0549c-9.7515,2.438-17.5526-1.9502-23.4036-11.7017c-9.2638,1.9504-18.0402,5.3633-26.8164,5.3633
		c-4.8757,0-10.7266-4.8755-14.1396-8.7762c-8.7762-9.7515-10.239-25.8413-4.8756-33.1549
		c11.2141,30.2295,27.304,31.6921,52.6577,17.5525c11.7017,19.0154,13.1644,19.5032,36.0803,2.9255
		C1809.9911,1279.9155,1806.5781,1290.6421,1793.4137,1294.0549z"/>
	<path d="M1610.574,1515.9004c-4.8756,1.4628-11.2141,2.438-14.1396,0.4875c-3.4128-1.9502-5.3632-9.2638-3.9005-13.1644
		c4.3882-14.6272,16.5775-21.4532,30.7172-25.8414c11.7017-3.9004,23.4034-8.2885,34.13-14.1394
		c17.5526-9.2639,26.8164-25.3539,32.6674-43.8816c-0.4875-0.4875-1.4628-1.4628-2.438-1.9502
		c-0.975,0.9752-1.4626,2.9254-1.9502,3.9006c-13.652,17.0648-31.2046,24.8661-52.6578,24.8661
		c-12.6768,0-24.8662,1.9502-35.1052,10.7266c-7.3136,6.826-14.1395,14.6271-20.9655,21.9407
		c-7.8014,8.7765-15.1149,18.0403-23.8912,26.3291c-5.8508,5.8508-13.6519,2.9254-19.0153-1.9504
		c-6.3384-4.8756-6.3384-12.1892-1.4626-17.5526c5.3633-6.826,12.6769-13.1644,19.5028-18.5277
		c10.7267-7.8011,19.0155-17.0649,23.8911-29.2544c5.8508-15.1146,4.8757-28.7667-5.3634-40.4684
		c-0.975,26.3287-12.6768,44.8566-37.0553,55.0956c-7.3137,3.4132-14.6273,5.8508-21.9409,9.264
		c-13.652,5.3632-26.3289,12.1892-39.9808,17.0648c-25.3539,7.8013-51.1952,8.2888-77.0366,5.8508
		c-4.8756-0.4874-9.2637-2.9254-14.1395-2.4376c-31.2046,0.975-62.8967,1.9502-94.589-3.4132
		c-19.5029-3.9004-38.5183-7.801-58.021-10.7264c-23.8912-3.9008-48.7573-2.438-70.698-16.5774
		c2.4377,3.9004,5.3632,6.8258,8.7762,9.2638c26.3289,20.9655,55.0956,38.0305,84.8376,53.1454
		c14.6271,7.3136,29.7417,14.6272,44.369,20.9655c20.4781,8.7764,40.4685,19.0154,61.9216,24.3787
		c31.2047,7.8013,62.8969,12.1895,95.0765,17.5526c26.8167,4.3881,54.1207-0.975,80.937-3.9004
		c3.9006,0,8.2888-0.9752,11.2142-3.4132c4.3882-3.413,7.8011-8.7762,11.7018-13.1644c-0.4875-0.4874-1.4628-0.9752-1.9503-1.4626
		c-26.3289,8.2887-35.5928,6.826-40.9561-5.851c5.3633-6.826,10.7266-8.7762,22.9158-5.3633
		c17.5527,4.3881,35.1055,4.3881,52.1704-1.9502c16.0898-6.3384,27.7916-16.0898,27.7916-34.1302
		C1613.9869,1511.0248,1612.5242,1514.9252,1610.574,1515.9004z"/>
	<path d="M1193.6996,832.3239c14.6272,8.7764,30.2295,3.9006,46.3195-0.4875c0,3.4131,0.4877,4.8757,0.4877,6.3385
		c1.9502,40.9561,34.6176,65.8221,73.6234,57.046c18.5277-4.3882,35.5927-2.438,48.2695,14.1396c0,0,0.9752-0.4877,3.9006-1.4629
		c-8.2887-9.7515-14.6271-19.9905-23.8911-27.304c-7.801-6.3385-14.1395-12.1893-16.0898-21.9407
		c-1.4628-6.8262-2.4379-13.6521-2.4379-20.4781c-0.9751-12.6769-5.851-22.9159-15.6023-31.6923
		c0.4875,8.2888,1.4626,15.1147,0.9751,21.4532c-1.4628,14.6271-17.5526,24.8663-27.3041,17.0651
		c-10.239-8.2888-18.04-19.0154-17.5526-33.1549c0-17.5526-6.3383-32.6674-16.5773-46.807c-1.4628-2.4377-4.3882-4.3882-6.826-6.826
		c-1.4628,3.413-0.9752,4.8757-0.4875,6.826c2.9254,18.5278-6.826,29.2544-25.8413,28.7668c-2.9255,0-6.3386-0.4877-9.7516-0.9753
		c-12.6769-2.4377-17.5525-10.7263-12.1893-22.4282c1.9503-5.3633,5.3633-9.7515,7.8013-14.6272
		c4.8756-9.2639,1.9502-20.9656-7.8013-26.8164c-3.413,20.9656-31.2046,47.782-48.2697,44.8567
		c0.9752-3.4131,1.4628-6.8259,2.9254-9.7515c2.9254-5.3633,6.826-10.239,10.239-15.6023
		c4.8757-7.8013,4.3882-17.0652-2.4377-24.8662c-0.9752,1.9502-1.9504,3.9006-3.4131,5.3633
		c-1.4628,1.4626-3.413,2.9254-4.8756,4.3882c-16.5776,14.6271-37.0557,18.5278-57.5336,22.4282
		c-20.478,3.9006-39.0059,10.239-54.6082,25.8414c-19.5029,19.5028-32.1798,43.3939-45.8319,67.2849
		c-0.975,1.9503-1.4626,4.3882-1.9503,6.826c2.9255-0.4875,3.9006-1.4626,4.8757-2.4379
		c10.2391-13.652,19.5031-28.2792,31.2046-40.9562c19.9906-22.4282,45.8319-32.1797,75.5737-27.7915
		c13.1646,1.9503,25.8413,6.8259,39.0057,8.7762c10.7267,1.4628,21.4532,0,32.6675,0
		C1171.7589,810.8708,1179.5601,824.0353,1193.6996,832.3239z"/>
	<path d="M820.2194,828.9109c4.8757-2.4379,7.8011-8.2887,10.7266-13.652c2.4377-4.8757,2.9255-11.2141,5.3633-16.0898
		c5.3633-9.7515,16.5774-11.7018,23.4033-3.9006c2.438,2.4379,2.9255,6.8259,5.3633,12.1893
		c2.9255-3.9006,6.3386-6.826,8.7764-10.2389c2.9254-5.3635,5.3632-10.7267,8.2887-16.0901
		c10.239-19.5029,24.3785-32.6672,48.2695-31.2046c4.3881,0.4875,8.7764-1.4626,13.1646-2.9254
		c1.4626-0.9751,2.9254-2.9254,3.9006-4.3881c-11.2142-2.438-21.4532-4.3882-31.6921-6.8262
		c-19.0154-4.8756-37.0555-2.9254-52.1703,10.7266c-2.4379,2.438-5.3633,3.9006-7.8011,6.3386
		c-6.826-4.8759-3.9008-10.239-1.9503-15.1147c7.3135-19.0154,24.8661-24.3787,41.9312-29.2544
		c15.6024-4.3882,31.6921-6.3384,47.7822-10.239c4.8756-1.4628,8.2887-6.3384,12.6768-9.2639
		c-0.4875-0.9751-0.9751-1.4626-1.9503-2.4379c-2.4379,0.4877-4.8757,0.9752-9.2638,1.9503
		c-17.5526-33.1549,0.9752-57.0459,17.5526-82.8873c-3.9005,2.9254-7.3135,5.3633-11.2142,7.8011
		c-23.891,17.5526-48.2695,34.1301-71.6731,52.1703c-20.9655,16.0898-34.6176,38.5182-49.7323,59.9713
		c-5.3633,7.3136-8.2887,15.1147-6.826,24.8662c1.4628,6.826-2.4379,11.2141-9.7515,12.6769
		c-3.4128,0.9752-7.3135,1.9503-9.2639,4.3882c-4.8756,6.826-8.7762,13.652-12.1892,20.9656
		c-1.9503,3.413-1.9503,8.7765-0.4875,12.1893c2.9255,7.3135-0.4875,9.7515-6.8259,12.1893
		c-2.9255,0.9751-7.3137,2.9254-8.2888,5.3634c-4.3881,14.1394-9.7515,28.2791-11.2142,42.9063
		c-1.4628,15.1147,2.9255,29.7419,18.0402,39.981c-0.4875-3.413-0.975-6.3384-1.4626-9.2639
		c-0.4875-3.9006-1.4628-7.801-0.4875-11.2141C786.5768,857.6777,800.2289,841.1003,820.2194,828.9109z"/>
	<path d="M841.1849,1004.9245c6.8259-2.9253,12.6768-7.3135,18.04-12.1892c3.4131-3.413,3.9006-7.801,1.9504-13.1646
		c-2.4379-6.3384-2.9255-13.1643-2.9255-19.9905c-0.9751-17.5525,7.3137-31.692,17.0649-45.8317
		c4.3881-5.851,6.826-14.6271,7.3136-22.4283c0.9752-9.7515-2.9255-20.478,0-29.7419c6.3384-20.478,18.0402-37.543,37.0555-49.2449
		c18.0402-11.2141,36.5679-21.9407,48.2697-40.4685c1.9503-2.9253,2.9254-5.3632,4.3881-8.2886
		c-17.0651,12.1892-36.0803,17.5525-56.0708,20.9656c-27.7917,4.8757-46.807,20.478-57.0459,46.8069
		c-2.9255,7.3137-6.3386,14.6272-9.7515,21.9408c-4.3882,10.2389-9.7515,19.9905-19.0154,26.329
		c-9.7515-6.8262-11.7017-13.1646-6.3384-21.4532c3.4128-4.8757,8.7762-9.2639,12.6768-14.1396
		c5.8508-7.3136,11.7017-14.6271,16.0898-22.9159c3.4131-6.3384,3.4131-14.6272-3.4128-21.4531
		c-2.438,15.6023-11.2142,26.3289-22.9159,35.1052c-20.9657,15.6023-32.6674,34.6176-34.1301,62.8969
		c-2.4379,39.0057,12.6769,70.698,32.1798,101.9026C828.5081,1005.8998,835.3341,1007.85,841.1849,1004.9245z M833.8712,963.4809
		c-0.9751-12.6769-1.9502-25.8413-2.9254-38.5182C837.7719,938.6147,839.7223,959.5803,833.8712,963.4809z"/>
	<path fill="#FFFFFF" d="M830.9458,924.9627c0.9752,12.6769,1.9503,25.8413,2.9254,38.5182
		C839.7223,959.5803,837.7719,938.6147,830.9458,924.9627z"/>
	<path d="M1071.3191,843.5383c-23.4036-0.4877-49.2449,19.0151-51.1952,49.7323c-0.4875,3.413-1.4626,6.826-2.9254,9.7513
		c-4.8757,8.2888-12.1895,12.1895-17.5526,8.7764c-6.3385-3.9006-6.826-15.6023-0.9752-22.9158
		c2.9255-2.9255,5.851-5.8511,8.7762-9.2639c2.9255-2.9255,5.851-5.8508,8.2888-9.7515c5.8508-9.7515,3.9006-22.4285-4.3881-28.2793
		c-1.9504,15.1147-10.7267,25.3538-21.9409,34.6177c-9.2639,8.2887-16.0898,18.5278-20.9655,30.2295
		c-9.2639,21.4532-7.8013,43.8816-6.826,65.8223c0.975,19.0153,13.1644,32.6672,31.2046,38.5182
		c1.4626-8.2887,1.4626-16.5775,4.8757-23.4034c3.413-7.3136,9.7515-13.6521,16.0898-19.5029
		c16.0898-13.1643,26.329-28.7667,27.3042-50.22c0.9751-21.4531,13.652-34.13,31.6921-41.4436
		c13.1644-5.3633,23.4036-13.1644,31.6923-23.891c8.7762-11.7018,13.1644-25.3538,10.239-35.1053
		C1102.0361,836.7121,1092.2847,844.0257,1071.3191,843.5383z M993.3074,969.3318c-1.4626-0.4877-2.4379-0.9751-3.9006-1.4628
		c-1.9503-14.1396,7.8013-23.4033,15.1147-34.13c0.4875,0.4874,1.4628,0.4874,1.9503,0.9751
		C1002.0837,945.9284,997.6957,957.6301,993.3074,969.3318z"/>
	<path fill="#FFFFFF" d="M989.4067,967.8691c1.4628,0.4877,2.438,0.9751,3.9006,1.4628
		c4.3883-11.7018,8.7764-23.4034,13.1644-34.6177c-0.4875-0.4877-1.4628-0.4877-1.9503-0.9751
		C997.208,944.4658,987.4564,953.7294,989.4067,967.8691z"/>
	<path d="M819.7318,1187.2767c-0.9752-13.652,0.4875-27.7916,1.9502-41.9313c0.9752-6.8259,7.3137-9.2639,14.1396-5.8508
		c2.9255,1.4628,5.8508,3.9006,9.2639,5.3633c10.7266,4.8757,21.4531-0.9751,21.4531-8.7764c-5.3633,0-10.239,0.9751-14.6272-0.4875
		c-11.2141-2.9254-21.9407-6.8259-34.13-10.7266c4.3881-16.5775-15.1147-22.9158-19.5029-38.5182
		c-5.3633,9.7516-0.4875,17.5526,3.413,25.3538c-11.7017,6.3385-18.04,5.3634-25.3538-2.9254
		c-2.4377-3.4131-4.3879-6.3385-6.8259-9.7515c-20.478-35.5928-22.4283-64.8472,5.3633-98.4897
		c2.9254-3.413,5.3632-6.826,7.8011-10.239c6.3384-11.7018,7.8011-23.891,6.3384-37.0554
		c-1.9503-19.5029-3.413-39.4934-15.6023-56.5585c-2.4379-3.9006-5.3632-7.801-11.2142-5.3633c0,0.9751,0,1.4626,0,2.4377
		c12.1895,27.7917,6.3386,53.1455-9.2638,78.4993c-7.3136,12.677-15.1147,27.3041-16.5775,41.9312
		c-2.4377,17.0652,0.9751,35.1053,3.9006,52.1703c4.3882,26.329,17.0649,49.2449,33.6425,69.7228
		c14.1395,17.5527,32.6674,32.1799,39.0057,55.5833c1.9503,8.2888,8.7762,13.1646,17.0649,13.6521
		C826.5577,1199.4661,820.2194,1193.6152,819.7318,1187.2767z"/>
	<path d="M1536.9506,622.1804c17.0651,5.3633,33.6425,8.7762,50.7075,0.4875c6.826-3.9006,10.7266-8.2888,9.7515-17.5527
		c-16.0898,5.851-29.7419,3.4131-42.9064-5.8508c-5.8508-4.3881-12.1892-8.7762-19.0153-11.7017
		c-18.5278-8.2886-46.3193,2.4377-53.1455,21.4532c-2.4377,7.8011-0.4874,17.0649-0.9751,27.3041
		c-1.4626,0.4875-5.3632,1.9502-9.2638,1.9502c-13.6521,0-23.4034,11.7018-20.478,24.8662
		c5.3633-11.7017,9.7515-13.1644,18.5278-6.826c-5.3634,30.7172-4.3882,39.0057,8.2886,45.8319
		c15.6023,8.7762,32.1798,9.2639,47.7821,0c7.3137-4.3882,13.1646-11.2144,12.6768-20.4781
		c-2.4376,0.9752-3.9004,2.9254-5.8508,4.3881c-11.2141,9.7516-24.3785,12.677-38.0305,7.3137
		c-3.4131-1.4626-7.8011-6.3384-7.3136-8.7764c0.4875-3.9005,4.3882-7.3136,7.801-10.239c1.4628-0.9751,3.9008-1.4626,5.851-1.4626
		c12.1895-0.4875,22.9159-3.413,34.1301-8.7764c6.3385-2.9254,15.1147-0.4875,23.4034-0.4875
		c-1.4628-6.8259-5.851-12.1892-14.1395-12.6768c-4.8759-0.4877-10.2391,0-15.6024,0c-8.7762,0-17.0649-1.9504-22.4283-9.2639
		c-1.9502-2.4379-2.4379-7.8013-0.9751-10.239C1512.0845,621.6928,1525.7363,618.7673,1536.9506,622.1804z"/>
	<path d="M1733.4423,703.6049c-29.7419-9.2639-24.8662-29.7419-43.8815-43.3939c-10.239-7.3136-57.5336-13.652-54.1206,43.3939
		c-19.9904-0.4875-32.6674,10.239-41.9313,25.8413c-26.8164,45.3442,18.0403,53.1454,52.658,50.7075
		c-5.3634-6.3384-9.264-7.8011-24.8662-9.2639c-24.3787-1.4626-9.7515-32.1797,3.9005-36.0803
		c22.4285-5.8508,10.239,31.6923,34.1301,25.3538c-0.9752-1.9503-1.9503-3.9005-2.9254-6.3384
		c14.1395,3.9006,18.04,12.1892,12.6768,29.7419c45.8318-21.9409-19.9904-53.6331-17.0649-71.6732
		C1661.7692,659.7233,1723.2032,736.7599,1733.4423,703.6049z"/>
	<path d="M1408.2316,589.513c6.8259-1.4628,14.6271-0.4877,21.9407,0.9751c12.1893,1.9503,23.891,5.851,36.0803,1.4628
		s19.5029-16.0898,16.5775-23.8909c-5.3633,2.4376-10.7266,6.3383-16.5775,7.3135c-16.5774,3.4128-30.7169-4.8759-43.8813-13.1646
		c-9.7515-5.8508-19.0154-12.6768-30.2295-10.239c-22.4285,4.3882-38.5183,31.6923-23.4036,53.1453
		c5.3633,7.3137,3.4131,14.1396-1.4628,21.4534c-4.3881,5.8508-7.3135,12.6769-9.7513,19.5028
		c-6.826,17.0651,1.9502,26.329,12.6769,33.1549c11.214,7.8013,30.2295,5.8508,39.0057-2.9254
		c4.3882-3.9005,8.7762-8.2887,14.1395-12.6769c-4.8756-4.3882-10.7264-2.9255-16.0898,0.4875
		c-7.3136,4.3882-14.6272,4.3882-22.4283,0.4875c-6.8259-3.9006-7.8011-9.7515-3.9005-16.0898
		c5.3634-9.7515,15.1147-13.652,27.3041-12.1892c4.3882,0.9751,8.7762,1.9502,13.1644,1.9502
		c15.1147,0,21.4532-8.7764,17.5525-24.8662c-4.3881,9.7515-4.3881,9.7515-14.1396,9.7515c-3.9005,0-8.2886,0-12.6768,0
		c-10.239-0.4875-17.0649-5.3633-18.0402-14.1395C1392.6292,600.2397,1397.9926,591.4632,1408.2316,589.513z"/>
	<path d="M878.7279,1127.793c0.4875,0,1.4628,0,2.4379,0c2.9255-16.09,7.3136-32.1798,8.7764-48.7573
		c1.4626-16.5774-3.413-32.6672-18.0402-42.4188c-9.7515-7.3136-20.478-13.1645-32.1797-17.065
		c-16.09-5.3634-28.2792-15.1147-36.0804-29.7421c-2.9254-4.8755-4.8756-10.7266-7.3136-16.0898
		c-5.3633,14.6272-9.2639,29.2544-15.6023,42.9064c-12.1893,25.3539-4.8757,49.2449,4.8757,72.6484
		c0.4875,0.9751,1.9503,1.4626,4.3881,3.4131c-4.3881-19.0154,4.3881-28.7668,19.5029-35.1052
		c16.09-6.3386,29.7421-1.9502,41.4437,9.7515C867.5138,1083.9114,879.7031,1102.9268,878.7279,1127.793z"/>
	<path d="M1173.7091,623.1555c6.826-3.413,13.6522-6.3384,19.0154-11.2141c6.826-6.3385,13.6521-13.6521,10.2391-25.3538
		c-5.851,4.3882-10.7267,9.7515-16.5775,12.1893c-8.2887,3.413-17.0651,5.3632-26.3289,6.3383
		c-34.1301,3.9008-45.3442,29.2544-39.4934,51.1952c3.413,14.1396,1.9503,25.3538-2.4379,38.0306
		c-1.9503,5.8508-1.4626,12.1893-1.9503,18.5278c0.9751,0,1.9503,0,2.9254,0.4875c0.4877-3.413,0.4877-7.3137,2.4379-9.7515
		c3.9006-5.3633,8.2888-11.2142,13.6521-14.6272c6.3384-3.9006,15.6023,1.9502,15.6023,8.7764
		c-0.9751,21.4531,24.3787,27.3041,38.0306,19.9904c4.3882-2.4379,8.2887-9.2638,8.7764-14.6271
		c0.4874-5.3633-3.4131-10.7267-4.8759-16.0898c-0.9751,0-1.9503,0.4875-2.4377,0.4875c0,2.4377,0.9751,4.3882,0.4874,6.3384
		c-1.4626,4.3882-2.9254,11.2141-5.8508,11.7018c-4.8756,1.4628-12.6769,0.4874-15.6023-2.9255
		c-2.9255-2.9254-2.9255-10.7264-1.4628-15.6022c0.9752-2.9255,6.3386-5.3634,9.7515-6.8262
		c14.6272-5.8508,20.9657-28.2791,11.2142-39.4932c-2.9254,8.2886-5.8508,16.5774-9.7515,24.8661
		c-2.4379,5.3634-6.3384,7.8011-12.1892,1.9503c2.4377-3.4131,4.3882-6.3385,6.8258-10.239
		c-11.2141-3.9006-16.0898,4.3882-22.9158,9.7515c-7.8011-5.3633-8.7762-11.2141-4.8757-20.9657
		C1150.7933,633.3945,1162.9827,628.5187,1173.7091,623.1555z"/>
	<path d="M879.7031,1285.7664c0.4875,8.7762-0.4875,16.5774,1.9503,23.891c1.9503,6.826,6.826,13.6521,11.7018,19.0153
		c5.8508,6.3385,14.1395,6.3385,22.4283,2.4379c4.8756-10.7264,2.9254-20.9655-0.4875-31.2047
		c-4.3882-16.0898-16.0898-21.9407-31.6921-24.3784c-23.4034-3.9006-36.0803-12.6769-33.6426-41.4436
		c0.4875-5.8508-2.4377-12.1895-3.9004-18.5278c-0.4875,0-1.4628,0.4875-2.438,0.4875
		c-0.9751,11.7017-1.4626,23.4036-2.4377,35.1052c-1.4629,15.6024,2.4377,28.2791,16.5774,37.0554
		c0.4875,0,0.4875,1.4626,0.9751,2.9254c-7.8011,2.9254-13.6519-0.4874-18.5277-4.8756c-4.3881-4.3882-6.826-10.239-10.2391-15.6023
		c-2.9254,12.6769,1.4628,24.3785,11.7017,31.6921c10.239,6.826,18.0403,7.3136,27.7917,0.9752
		C869.9518,1296.0054,868.9766,1287.7166,879.7031,1285.7664z M907.4948,1318.4336c-5.8508-8.7762-11.2142-18.04-17.0649-27.3041
		C900.1813,1293.08,907.9822,1304.2942,907.4948,1318.4336z"/>
	<path fill="#FFFFFF" d="M890.4298,1291.1295c5.8507,9.264,11.2141,18.5278,17.0649,27.3041
		C907.9822,1304.2942,900.1813,1293.08,890.4298,1291.1295z"/>
	<path d="M724.1675,1002.4868c-3.9006-4.3882-9.2638-8.2888-13.652-12.1893c-15.1147-15.6024-28.2791-31.6923-28.2791-55.0956
		c0-8.2888-1.4628-16.5775-1.9504-26.329c-18.5277,38.0306-7.801,71.6732,12.6769,103.8529
		c-0.975,0.4875-1.9503,0.9751-2.9254,0.9751c-3.9006-2.9254-7.8013-6.3384-12.1895-10.239
		c0.9751,11.2142,7.8013,21.4533,17.0651,27.3041c8.7762,5.3634,17.5526,10.7267,28.7667,17.5526
		c10.7266-9.2638-1.9504-18.5277-3.413-27.304c4.8759-2.438,8.7762-4.3883,14.1395-6.8262
		C730.0184,1008.8251,727.5806,1005.4122,724.1675,1002.4868z"/>
	<path d="M957.2272,1061.9706c-11.7018,5.851-18.0403,14.1396-17.5526,27.3041c0,7.8013,0,16.0898,0.4875,24.3787
		c0.4875,4.8757,1.4626,9.7515,1.9503,13.6521c6.3384-12.677,11.7017-25.3538,19.0153-36.5681
		c7.8011-11.2141,16.0898-11.2141,24.3785,0c15.6023-18.5276,17.5526-39.9808,13.1644-60.9464
		c-10.239-6.3386-19.5029-12.1894-30.2294-18.5278c1.4626,3.413,2.4377,5.8508,3.4128,8.2887
		C978.1927,1035.1541,971.8542,1054.657,957.2272,1061.9706z"/>
	<path d="M828.9957,1146.3206c7.801,25.8414,28.7667,35.5928,50.7074,26.8165c9.2638-3.9005,19.5031-5.8508,29.7419-8.2887
		c7.8011-1.9503,15.1147-0.4875,22.4283,4.8757c7.8011,5.8508,16.0898,11.2141,24.3785,16.5775
		c7.8011-5.3634,9.2639-13.1646,1.9503-19.5029c-3.4128-3.413-7.3136-6.826-11.7017-8.2887
		c-18.5277-5.3633-24.3785-19.0154-24.8662-36.5681c-0.4875-9.2637-2.9254-18.04-4.3881-26.8164c-0.9751,0-1.4626,0-2.4379,0
		c-0.9751,7.8013-1.9503,15.1147-2.4379,22.916c-1.4628,21.9407-19.0153,39.0057-40.9559,40.9561
		C856.2997,1160.4602,842.16,1158.51,828.9957,1146.3206z"/>
	<path d="M1554.9907,889.3699c7.8013,1.9503,16.0901,3.9006,24.3787,3.413c31.6921-2.9253,50.22-32.1797,38.0308-58.9962
		c-10.239,34.13-28.7668,50.7075-47.7821,42.4188c1.9502-9.7515,4.3882-19.9905,5.8508-30.2295
		c1.9502-15.1147,0-23.4034-4.8759-28.7668c-4.3882,28.7668-24.3785,43.394-48.2695,55.0958
		c1.4626,2.4379,3.4128,4.8756,5.3633,7.3136h-0.4877C1535.0004,887.4196,1545.7269,886.9321,1554.9907,889.3699z"/>
	<path d="M1695.4116,848.4138c1.4628,0,3.9006-2.9253,4.3882-4.8755c3.9005-18.0403,16.5774-26.3291,33.6425-29.7421
		c5.3633-0.9751,10.7266-4.3881,14.1396-8.2887c2.4377-3.9005,2.4377-9.7515,2.9254-15.1147
		c0.9751-9.2639,5.8508-16.5774,12.1893-15.6023c13.1644,1.9502,15.6022-8.2887,22.9158-16.0898
		c-9.2638-1.9504-15.6023-3.4131-21.9407-3.9006c-16.0898-1.4626-29.2543,11.7018-28.7668,27.3042
		c0,2.4377,0.4877,4.3881,0.9752,6.3383c0,6.826-4.3881,10.2391-10.239,7.3136c-3.4131-1.4626-6.3385-4.8757-9.7515-7.3136
		c-2.4379-2.4379-4.3882-4.8756-6.3385-7.3136c-0.9751,0.4877-1.4626,0.4877-1.9503,0.9753
		c0.4877,1.9502,0.4877,3.9004,1.4628,5.8508c4.8757,8.2886,2.9254,14.1394-5.3633,19.0151
		c-3.413,1.9504-6.8259,4.8759-10.239,7.8013c-7.8011,7.8011-10.2391,23.4034-4.3881,30.717
		C1690.5359,846.9511,1693.4613,848.4138,1695.4116,848.4138z"/>
	<path d="M755.8597,943.4904c-5.8508-3.9004-12.6769-6.8259-16.0898-11.7017c-6.8259-10.239-11.2141-21.9407-16.5774-33.1549
		c-1.9504-3.9005-4.3882-7.8011-6.3384-11.2142c-0.9752,0-1.4628,0.4875-1.9504,0.4875
		c-1.9502-13.1643-3.9006-26.3289-5.8508-39.4934c-0.4875,0-0.9751,0-1.4626,0.4877c-2.438,15.6024-4.3882,31.6923-6.826,47.2946
		c-3.413,26.8164,7.8011,48.7572,23.4034,69.2354c1.9503,1.9502,4.8757,3.4128,8.7762,5.8508c0-7.8013,0-13.6521,0-19.0154
		C740.7451,947.8786,752.4467,955.1922,755.8597,943.4904z"/>
	<path d="M984.5311,1289.6667c0-0.9749,0-1.4626,0-1.9502c0.4875-0.9751,0.9752-2.4379,1.4628-3.4128
		c8.7762-15.6023,9.7513-30.7173-0.9751-46.3193c-2.9255-4.3882-2.4379-10.7268-3.4131-16.0901c-0.4875-2.4377,0-4.3882,0-7.801
		c-10.239,10.239-12.6768,22.4283-8.2887,34.6176c5.8508,16.0898,2.9255,22.9159-12.6768,30.7169
		c-5.8508,2.9255-11.7017,6.3386-17.5526,9.7516c-11.2142,6.3384-14.6272,25.8413-8.2888,39.4933
		c4.8757-8.7764,9.7515-19.5028,16.0898-28.7668c6.3386-9.7512,15.6023-7.801,19.5031,2.9257
		c1.4626,5.3632,2.4379,10.7266,3.413,14.6272c4.8757-3.9006,9.2638-8.2888,14.6272-11.7018
		c9.7515-6.826,13.652-14.6273,11.2142-23.8911C991.8448,1290.6421,991.8448,1290.6421,984.5311,1289.6667z"/>
	<path d="M1865.0867,1012.7258c0,18.0402,3.9006,37.543-5.8508,54.1207c-9.2638,15.6023-21.4531,29.2544-32.6672,44.8566
		c16.0898,1.4628,24.3785,10.7266,22.9159,28.2792C1878.2512,1109.2651,1887.0276,1030.766,1865.0867,1012.7258z"/>
	<path d="M732.4562,1083.9114c7.3137-11.7017,4.3882-17.0649-8.7762-18.5278c-17.0651-1.9502-32.6674-6.8259-42.4188-22.4282
		c-4.8757-7.8013-9.2639-15.6023-13.6519-22.9161c-0.4877,0-1.4629,0.4877-2.438,0.9753
		c3.9006,10.7265,6.826,21.9407,12.1895,31.6922c5.3633,9.7515,13.1644,18.04,21.4531,29.2544
		c-6.8259-1.4629-10.7266-2.438-15.1147-3.4131c2.9255,10.7266,10.7266,17.5527,22.4283,18.5278
		c10.2391,0.9751,20.4781,1.9502,32.6674,2.9253c-2.9255-4.8757-5.3633-8.7762-7.8013-12.6769
		C731.4811,1085.8616,731.9686,1084.8865,732.4562,1083.9114z"/>
	<path d="M1351.1854,550.9948c-12.1892,7.801-23.8909,3.9006-35.1051-0.4875c-26.3289-11.2141-50.22,23.4036-29.2543,45.3442
		c9.2638-1.9503,17.5526-4.3883,25.8414-6.3385c-2.9257-3.9005-15.6024-0.9752-13.6522-10.7267
		c4.8757-20.4779,27.3041,2.438,54.6082-24.866C1352.6482,552.945,1351.6732,551.9699,1351.1854,550.9948z"/>
	<path d="M898.7184,1226.7701c14.1396-4.3882,27.3041-8.2888,42.4188-1.9504c10.7266,4.3883,17.0651,0,21.4531-10.239
		c-23.4034,3.4132-37.5431-9.7513-48.7572-31.692c-0.975,19.0154-7.8011,30.717-25.3538,33.1548
		c-15.1147,2.4379-29.7418,2.4379-41.4436-10.239c0,2.4379,0.4875,4.8759,1.4626,6.3386
		C862.6381,1226.2825,879.7031,1232.1335,898.7184,1226.7701z"/>
	<path d="M1005.0092,998.0986c1.9503,7.3136,3.9006,14.6272,6.3385,23.8911c11.7017-12.677,21.9408-22.4283,30.7172-33.6426
		c6.3384-8.2887,5.3633-18.0402,0.9752-28.2792C1038.1641,981.0336,1013.7855,981.0336,1005.0092,998.0986z"/>
	<path d="M922.6095,1338.4241c-8.7762,9.7515-19.9905,9.7515-30.2296,5.3634c-9.2638-4.3882-17.5526-11.7018-25.3536-17.0651
		c2.4377,16.0898,17.5526,29.7419,35.1052,30.2295c11.7017,0.4874,23.4034,1.4626,35.1052,1.9502
		c12.6768,0.4877,24.8662-10.239,25.8413-22.4282C951.3762,1354.5139,931.3859,1354.0265,922.6095,1338.4241z"/>
	<path d="M1739.2931,1021.502c-14.1395,11.2143-28.7668,22.4284-41.9313,32.1799c2.9255,10.239,5.3634,20.478,8.7764,32.6674
		c12.1895-22.4283,23.8911-43.3939,35.1052-64.3596C1740.7557,1021.9897,1740.2683,1021.9897,1739.2931,1021.502z"/>
	<path d="M1290.7266,653.3849c10.239-1.4626,19.0153-2.9254,27.7917-3.9006c13.1644-1.9502,19.9904-13.1643,15.1146-25.8413
		c-11.2141,11.7017-26.3289,9.2639-39.4933,10.7266C1291.2142,641.6833,1285.8508,648.0217,1290.7266,653.3849z"/>
	<path d="M913.8331,1262.3628c5.3632-1.4628,11.7018-0.4875,17.5526-0.4875c8.7762-0.9752,18.0402-0.9752,26.8165-2.9254
		c2.4379-0.4874,4.8757-5.3634,7.3136-7.8011c-0.9751-0.4877-1.4626-0.9751-1.9503-1.4626
		c-14.6271,10.7266-32.1797,5.3632-43.3939-14.6272c-5.3633,23.4036-21.4532,24.3784-39.4935,21.9408
		C891.4048,1263.3379,902.1315,1265.2883,913.8331,1262.3628z"/>
	<path d="M1017.686,1037.1045c-11.2142,4.8757-15.6023,16.5774-9.7515,28.2791c23.4034-19.9905,25.8414-25.3536,21.9409-38.0305
		C1025.9749,1030.766,1022.5618,1035.1541,1017.686,1037.1045z"/>
	<path d="M998.1832,1081.4735c-1.4628,6.3385-2.4379,12.1893-3.9006,18.0402c17.5526,1.4626,30.2295-11.2141,27.7916-26.3289
		C1015.7358,1079.0356,1009.3973,1086.3492,998.1832,1081.4735z"/>
	<path d="M974.7797,1117.0664c-2.9254,15.1147-12.1893,19.9902-24.8662,21.4531c5.3633,5.8508,9.2639,10.7266,13.1646,15.6023
		C973.3169,1146.8082,979.1678,1129.7432,974.7797,1117.0664z"/>
	<path d="M962.5905,1297.9556c-6.3384,6.3386-13.652,27.7916-12.1893,35.1051c9.7515-3.4128,13.652-9.7512,15.6023-18.04
		C966.9786,1309.1698,969.4164,1302.3438,962.5905,1297.9556z"/>
	<path d="M754.8846,886.9321c-6.3386-4.8757-12.1895-9.7515-18.5278-14.6271c-0.4875,0.4874-0.9751,1.4628-1.4626,1.9502
		c5.8508,5.3634,11.7017,10.7267,17.5525,15.6024C753.422,888.8825,753.9095,887.9072,754.8846,886.9321z"/>
	<path fill="none" stroke="#000000" stroke-width="2.5" stroke-miterlimit="10" d="M803.693,1076.8508
		c16.835,41.2333,60.5081,48.3088,60.5081,48.3088C855.9056,1072.947,803.693,1076.8508,803.693,1076.8508z"/>
	<path fill="none" stroke="#000000" stroke-width="2.5" stroke-miterlimit="10" d="M976.5963,1091.0831
		c-31.23,18.868-24.3984,40.5013-24.3984,40.5013C979.5242,1115.9695,976.5963,1091.0831,976.5963,1091.0831z"/>
	<path fill="none" stroke="#000000" stroke-width="2.5" stroke-miterlimit="10" d="M880.304,993.3267
		c-1.6265,16.7535,7.8076,30.5795,18.3802,36.1098c10.5725,5.5303,15.6149,20.6573,15.6149,20.6573
		c0.6288-9.1378,2.4182-16.1495,6.0182-19.8441c0,0,15.3107-7.6448,15.3107-29.2991c0-21.6542-18.5219-18.5217-18.5219-18.5217
		c1.4928,4.1765,1.887,8.1938-0.0419,11.8738c0,0-0.1626,4.717-8.4581,0.8134c-8.2954-3.9037,3.0906-40.0134,3.0906-52.8634
		c0-12.8497-17.8109-23.1785-12.1992-17.5668c5.6116,5.6117,2.4398,25.6997-0.976,29.1155S881.9305,976.5732,880.304,993.3267z"/>
</g>
</svg>
